<?xml version="1.0" encoding="UTF-8" standalone="no"?>
<!DOCTYPE svg PUBLIC "-//W3C//DTD SVG 1.1//EN" "http://www.w3.org/Graphics/SVG/1.1/DTD/svg11.dtd">
<svg width="100%" height="100%" viewBox="0 0 2160 3840" version="1.1" xmlns="http://www.w3.org/2000/svg" xmlns:xlink="http://www.w3.org/1999/xlink" xml:space="preserve" xmlns:serif="http://www.serif.com/" style="fill-rule:evenodd;clip-rule:evenodd;stroke-linejoin:round;stroke-miterlimit:2;">
    <g transform="matrix(1,0,0,1,-2210,0)">
        <rect id="Redesigned" x="2210" y="0" width="2160" height="3840" style="fill:none;"/>
        <g id="Redesigned1" serif:id="Redesigned">
            <g id="Border-Death" serif:id="Border Death">
                <path d="M3290,3495.74C3290,3495.74 3186.31,2057.05 3166.96,1853.64L3166.89,1852.92L3166.82,1852.22L3166.82,1852.17L3166.81,1852.16C3160.16,1786.45 3104.61,1735.1 3037.16,1735.1L3036.99,1735.1C3071.74,1711.4 3094.58,1671.5 3094.58,1626.31C3094.58,1553.68 3035.62,1494.73 2963,1494.73C2945.68,1494.73 2929.15,1498.08 2914,1504.16L2914,1504.16C2868.43,1520.85 2837.19,1553.39 2803.55,1580.43C2798.39,1584.67 2793.07,1588.72 2787.61,1592.57C2782.07,1596.52 2776.39,1600.25 2770.53,1603.66L2770.53,1603.66C2730.15,1627.78 2682.96,1641.64 2632.55,1641.64C2483.74,1641.64 2362.93,1520.83 2362.93,1372.02C2362.93,1223.21 2483.74,1102.39 2632.55,1102.39C2715.14,1102.39 2789.18,1139.51 2838.66,1198.07C2869.43,1234.89 2915.7,1258.35 2967.41,1258.35C3059.97,1258.35 3135.12,1183.19 3135.12,1090.63C3135.12,1078.91 3133.92,1067.47 3131.62,1056.42C3129.5,1043.53 3124.96,1030.86 3118.9,1018.63C3114.67,1009.75 3109.67,1001.29 3104.01,993.351C3094.07,978.689 3082.68,965.045 3071.72,952.918L3071.88,952.409C3032.9,904.234 3009.55,842.919 3009.55,776.191C3009.55,621.407 3135.21,495.742 3290,495.742L3290,495.742C3444.79,495.742 3570.45,621.407 3570.45,776.191C3570.45,842.919 3547.1,904.234 3508.12,952.409L3508.28,952.918C3497.32,965.045 3485.93,978.689 3475.99,993.351C3470.33,1001.29 3465.33,1009.75 3461.1,1018.63C3455.04,1030.86 3450.5,1043.53 3448.38,1056.42C3446.08,1067.47 3444.88,1078.91 3444.88,1090.63C3444.88,1183.19 3520.03,1258.35 3612.59,1258.35C3664.3,1258.35 3710.57,1234.89 3741.34,1198.07C3790.82,1139.51 3864.86,1102.39 3947.45,1102.39C4096.26,1102.39 4217.07,1223.21 4217.07,1372.02C4217.07,1520.83 4096.26,1641.64 3947.45,1641.64C3897.04,1641.64 3849.85,1627.78 3809.47,1603.66L3809.47,1603.66C3803.61,1600.25 3797.93,1596.52 3792.39,1592.57C3786.93,1588.72 3781.61,1584.67 3776.45,1580.43C3742.81,1553.39 3711.57,1520.85 3666,1504.16L3666,1504.16C3650.85,1498.08 3634.32,1494.73 3617,1494.73C3544.38,1494.73 3485.42,1553.68 3485.42,1626.31C3485.42,1671.5 3508.26,1711.4 3543.01,1735.1L3542.84,1735.1C3475.39,1735.1 3419.84,1786.45 3413.19,1852.16L3413.18,1852.17L3413.18,1852.22L3413.11,1852.92L3413.04,1853.64C3393.7,2057.05 3290,3495.74 3290,3495.74L3290,3495.71L3290,3495.74Z" style="fill:rgb(38,38,38);"/>
            </g>
            <g id="Central-Sun" serif:id="Central Sun" transform="matrix(0.880279,0,0,0.880279,393.883,166.594)">
                <g transform="matrix(1.05694,0,0,1.05694,2148.5,-89.3139)">
                    <path d="M1164.58,1387.52L1380.89,1387.52L1380.89,1414.6L1164.58,1414.6L1164.58,1701.94L1137.5,1701.94L1137.5,1414.6L779.119,1414.6L779.119,1387.52L1137.5,1387.52L1137.5,1100.17L1164.58,1100.17L1164.58,1387.52Z" style="fill:rgb(255,0,0);"/>
                </g>
                <g transform="matrix(1,0,0,1,2166.75,-51.9361)">
                    <circle cx="1123.25" cy="1443.46" r="196.539" style="fill:rgb(255,0,0);"/>
                </g>
                <path d="M3350.77,1204.58C3360.68,1207.8 3370.24,1211.79 3379.39,1216.47L3379.39,1377.21L3486.02,1377.21C3486.37,1381.93 3486.54,1386.71 3486.54,1391.52C3486.54,1396.34 3486.37,1401.12 3486.03,1405.83L3379.39,1405.83L3379.39,1566.57C3370.24,1571.26 3360.68,1575.25 3350.77,1578.47L3350.77,1405.83L3093.97,1405.83C3093.64,1401.12 3093.46,1396.34 3093.46,1391.52C3093.46,1386.71 3093.64,1381.93 3093.97,1377.21L3350.77,1377.21L3350.77,1204.58Z" style="fill:rgb(38,38,38);"/>
                <g transform="matrix(1.14287,0,0,1.14287,2075.13,-211.406)">
                    <circle cx="1024.13" cy="1326.77" r="21.582" style="fill:rgb(38,38,38);"/>
                </g>
                <g transform="matrix(1.14287,0,0,1.14287,2075.13,-33.5111)">
                    <circle cx="1024.13" cy="1326.77" r="21.582" style="fill:rgb(38,38,38);"/>
                </g>
            </g>
        </g>
    </g>
</svg>
